<?xml version="1.0" encoding="UTF-8"?><svg width="100" height="100" xmlns="http://www.w3.org/2000/svg" viewBox="0 0 88 105.08"><g id="c"><path d="m0,.01c29.3.04,58.77-.09,87.96.07v55.82c0,6.23.37,12.76-1.14,17.51-2.89,9.1-10.02,15.19-17.51,19.73-7.81,4.72-16.53,8.36-25.3,11.94h-.07c-14.25-6.14-29.61-11.61-38.44-23.35-2.96-3.93-5.27-8.73-5.5-15.1V.01Zm4.76,4.76c.04,1.63-.09,3.44.07,4.97.52-1.19,1.41-2.06,2.82-2.21,2.62-.29,3.65,1.68,3.96,3.96.6-1.7,1.81-2.8,3.15-3.76-1.17-.24-.48-2.33-1.27-2.95H4.76Zm12.41,1.41c.85.06,1.74-.15,2.68-.07,2.38.22,3.56,2.03,4.76,3.42-.18.87-.3,1.79-1.07,1.88-1.19.14-2.85-2.47-3.76-.47.46.9,1.9,1.85,2.95,1.14-.13.9-.23,1.9-.94,2.08-1.38.35-2.22-1.64-3.15-1.68-.78-.03-1.47,1.01-.74,1.61,1.88.05,3.13.71,3.82,1.95,1.09-.71,2.85-1.68,3.89-2.68.71-.68,1.35-1.27.74-2.35.35-.24.43-.73.6-1.14.4.03.44.41.6.67.3-.01.6-.02.67.2.24.4-.15.95,0,1.27.61-.04.58-.72,1.14-.8.42-.09.35.39.67.2.3-.02.79-.39,1.01-.07-.23.53-.73.79-.81,1.48-.41.17-1.04.12-1.07.67.42,0,.88-.03,1.21.07.02.72.86.61.94,1.28-.66-.01-1.06.24-1.34.6-.98-.53-1.44-.16-2.08.27-1.1.72-2,1.79-2.55,2.75,1.64.24,2.67,1.09,4.23,1.41.38-.25.49-.76.87-1.01.28-.06.48.18.67,0,.34-2.92.9-6.01.6-9.26-.15-1.62-.77-3.3-.87-4.83-5.7.05-11.58-.09-17.18.07,1.06.64,2.05,1.24,3.49,1.34h0Zm16.57-1.21c.13,1.35.25,2.71.47,3.96h19.52c.29-1.27.34-2.8.54-4.16h-20.46c-.08.01-.07.11-.07.2Zm23.42-.2c0,.07-.02.14-.07.2-.96,3.92-1.22,9.15-.27,13.22,1.18-.57,1.86.49,2.28,1.28.33-.53.12-1.1.07-1.61,1.75-.22,1.71,1.4,1.48,2.82.85.58,2.35.25,2.55-.54.26-.99-.63-1.61-1.14-2.28-.49-.64-.86-1.21-1.07-1.68.19,1.52-1.37,1.57-2.41,1.14.22-.32.5-.58.74-.87-.36-.6.46-1.01.47-1.61,0-.46-.39-.66-.34-1.21-.51-.56-1.61-.54-1.81-1.41-.27-.2-.87-.07-1.07-.34.32-.49.57-.96,1.14-1.01.84-.06,1.39.9,1.95,1.01-.61-.79-.26-1.72-.74-2.62,1.51-.33,1.94.89,2.28,1.95-.03-.39.43-.28.54-.54.12-.28.06-.75.27-.94,2.07.95-.19,2.83.13,4.02.43,1.62,2.07,2.88,3.56,3.62.39-.35,1.41-.77,1.34-1.14-.3.14-.86.03-1.27.07,1.07-.55,1.67-1.95,0-2.21-.7-.57-.93-1.62-1.07-2.75-.29,0-.6.02-.8-.07-.5-.42-.72-1.11-.87-1.88.75-.68,1.97-.9,3.02-1.28.15-.24-.32-.32-.2-.74,1.4-1.15,3.11-1.99,5.84-1.81,2.21.15,5.3,1.79,5.37-.8h-19.86Zm19.26,3.35c-1.12-.03-2.46-1.1-3.56-.6,1.72.5,2.85,1.58,3.49,3.15.36-1.9,1.2-3.5,3.22-3.49,1.83.01,2.97,1.31,3.62,2.75v-5.17c-1.9.05-3.98-.09-5.77.07,1.47.98,1.04,3.34-1.01,3.29Zm3.82,4.7c.11-1.11.96-3.18.07-3.76-1.15-.74-1.89,1.34-1.95,2.21-.16,2.44.86,4.33,1.68,6.31.68,1.63,1.83,3.57,1.95,5.23.22,3.26-2.47,4.46-4.5,5.57.14.22.37.93.4,1.48,1.03-.53,1.67-1.81,3.35-1.48.04,1.5-.09,3.17.07,4.56.32-.04.62-.09,1.01-.07.34.41.52,1.29.47,1.88-.82-.13-1.43-.47-2.21-.4-1.56.13-2.29,1.47-3.02,2.48-.09.09-.29.07-.47.07-.12.3-.12.73-.4.87-.45-.41-1.21-.84-1.14-1.48.07-.64,1.25-.79,1.07-1.34-1.34-.14-1.86,1.14-3.02.74-.23.19-.42.72-.8.54-.25-.94,0-1.97.74-2.15-.34-.35-.53.45-1.07.33.05-.91-.05-1.81.54-2.08.98-.45,2.68.86,3.96.33-2.92-.64-5.41-1.71-6.71-3.96-1.82.51-3.14,2.08-2.48,4.63.73.34,2.11.67,1.48,1.95-1.08-.03-1.63-.39-2.42-.34-1.13.07-1.62,1.15-2.48,1.48-.23.09-.46,0-.67.07-.47.15-.58.8-1.14.74-.23-.5-.66-.97-.6-1.48.09-.83,1.12-.66,1.61-1.21-1.5-.28-2.79.79-3.76,0-.29.26-.54.58-1.01.67.02-.83-.16-2.03.54-2.35.82-.38,1.98.42,2.95-.07-.97.16-1.55-.44-2.08-.54-.38-.06-.87.16-1.28.07.56-2.95,3.8-1,5.84-.67-.22-1.09-.53-1.97-.6-3.09-.21-3.08,1.29-4.66,2.62-6.1.12-.13.4-.32.34-.54-1.34.36-2.07,1.33-3.15,1.95-.75-.47-1.59-.87-2.82-.87.01.64.77,1.12.6,1.88-.16.74-1.24.87-2.15.74-.04-.44.31-.5.34-.87-.48-.2-.19-.8-.27-1.14-.09-.42-.5-1.07-.8-1.21-.44-.2-1.08.08-1.54-.07-.41-.13-.3-.53-.74-.6-.42.51-.77,1.08-1.21,1.61-.44.53-1,.91-1.28,1.41,1.65-.22,1.06,1.36.87,2.55-.35,2.25-.78,4.77-1.07,6.57.89.09,2.2-.23,2.68.27.27,3.18.14,7.11.07,10.4-4.41-1.1-9.49-.06-12.68,1.48-3.12-1.6-8.25-2.54-12.61-1.48.04-3.42-.09-7.02.07-10.33.43-.58,1.76-.25,2.68-.34-.36-2.97-1.13-5.89-1.27-8.86.35-.19.74-.28,1.14-.27-.39-.64-1.44-1.2-1.81-2.08-.87.3-1.19-.44-2.08-.34.49.64.16,1.37-.13,2.08-.59-.44-1.28-.78-1.21-1.88-1.54-.39-4.48-.82-5.64,0-.44-.23-.9-.44-1.34-.67-.06.29.3.46.47.67.59.73,1.27,1.71,1.48,2.75.42,2.08-1.18,4.28-.27,6.37.86.03,1.46.58,2.48.54.66-.03,1.26-.52,1.81-.47.72.07,1.43.82,1.28,1.81-.43.11-.71-.4-.94-.07-.19.52.86.86,1.07,1.54.08.26.17.73-.07,1.07-.43-.06-.52-.46-.94-.54-.41.58-1.43,0-1.88.07.53.48.04,1.56-.4,1.88-1.22-1.71-3.61-2.26-5.3-3.49-.04-2.53-1.35-4.1-2.68-5.3-.15-.14-.33-.42-.54-.34-.74,2.16-1.91,3.63-3.89,4.49-.72.31-1.58.52-1.95,1.21,1.09.32,2.56.25,3.42.8.19.53.94,1.41.34,2.08-.47-.33-1.17-.44-1.88-.54-.08.42.31,1-.13,1.34-.37,0-.57-.46-.94-.54-.17-.04-.47.09-.67.07-1.34-.12-2.63-1.24-3.82-1.07-.68.09-1.13.83-1.81.2-.02-.46.32-.55.47-.94.64-1.65-.28-4.39-.13-5.9.19-1.97,2.34-.29,3.56-.2.15-.79.52-1.36.67-2.15-2.23-.63-4.17-2.07-4.16-4.43,0-1.54,1.33-3.46,1.95-4.9.69-1.62,1.41-3.41,1.54-5.3.08-1.17-.08-2.32-.67-2.75-.48-.35-1.59-.36-1.88.07-.75,1.1.64,2.01.4,3.09-.27,1.26-2.7,1.56-2.95-.13v27.44c5.97.96,11.98,1.89,17.91,2.88.04,1.48-.09,3.13.07,4.5,4.99-.21,8.4-2.52,13.69-2.28,2.22.1,4.15.68,5.84,1.28.56.2,1.38.62,1.81.6.47-.02,1.13-.47,1.68-.67,1.76-.64,3.69-1.11,5.84-1.21,5.49-.24,8.56,2.08,13.62,2.28.16-1.37.02-3.02.07-4.5,6.01-.9,11.88-1.94,17.91-2.82-.05-9.1.09-18.38-.07-27.37-.25.85-.89,1.69-.87,2.82.01.9.48,1.62.67,2.28-1.64-1.09-2.95-2.53-2.67-5.3h0Zm-15.43-1.48c1.44,1.83,2.31-1.49,3.89-1.54-1.19-1.27-2.86,1.13-3.89,1.54h0Zm6.64,4.16c.74-.09,1.8-1.63,2.01-2.48.71-2.87-3.65-2-4.56-.67-.54.78-.4,1.97-.54,3.09.85-.81,2.3.16,3.09.06h0Zm-30.33-1.82c.21.7,1.62.65,2.55.67.06.2-.14.68.13.67.47.31.55-.35.6-.67,1.72.32,3.3-.85,1.88-2.01,0,.12-.23.04-.27.13-.22.38.24.6.13,1.07-.44.19-1.22.39-1.81.2-.02-.38.05-.85-.07-1.14-.19-.08-.41-.08-.6,0v1.21c-.74,0-1.5.02-1.88-.34-.04-.45.35-.66.2-1.01-.64-.39-1.02.71-.87,1.21Zm6.78,6.24c-.3-1.14.36-3.11-.13-4.23-.27-.61-1.27-1.08-2.28-.8-.39.11-.53.53-.87.67-1.11.47-1.43-.38-2.08-.6-.72-.25-1.79-.12-2.21.54-.63.98-.07,2.51-.27,4.56-.14.42-.77.34-.8.87.76.4,1.33-.22,1.48-.87.38-1.69-.88-5.16,1.41-4.63.29.07.41.43.74.6.29.16.83-.01.8.47-.54.31-2.02-.33-2.15.4.22.63,1.73-.03,2.15.4v.2c-.54.31-2.02-.32-2.15.4.45.53,2.13-.17,2.41.54.34.03.28-.35.6-.34.58-.16,1.83.35,1.88-.34-.29-.52-1.69.08-2.08-.33v-.2c.53-.3,1.96.3,2.08-.4-.19-.64-1.69.04-2.08-.4,0-.46.44-.2.8-.4.3-.17.4-.54.67-.6.47-.12.87.09,1.27.34.46,1.8-.61,5.48,1.54,5.37.18-.75-.59-.64-.74-1.21Zm27.18-1.21c-.37.8-1.68,2.42-1.54,3.42.07.51.73.83,1.07,1.21.28.3.64,1.08,1.07,1.21,1.52.46,3.07-1.37,2.89-3.02-.09-.88-.9-2.02-1.28-3.09-.43-1.22-.63-2.7-.94-3.56-.3,1.31-.73,2.59-1.28,3.82h0Zm-64.88.47c-.46,1.13-1.54,2.55-1.34,3.62.23,1.23,1.75,1.53,2.89,2.01.48-.32.74-.81,1.21-1.28.4-.4,1.07-.83,1.14-1.41.11-.94-.94-2.31-1.41-3.36-.52-1.16-.96-2.35-1.34-3.56-.18,1.23-.57,2.53-1.14,3.96h0Zm34.08-.54c-1.16,0-2.79-.29-2.75.47.47.28,1.46.06,2.15.13-.04.25.09.67-.07.8-.73.19-2.3-.47-2.21.54,1.16.11,2.9.08,4.16.07.39,0,1.03.17,1.07-.34-.31-.54-1.55-.15-2.28-.27.04-.25-.09-.67.07-.8.64-.14,1.9.33,2.01-.34-.27-.45-1.24-.27-2.15-.27h0Zm12.54,1.68c.56-.09.94.36,1.27.27-.53-.27-.9-.76-1.01-1.34h-.2c.05.43-.09.66-.06,1.07Zm-26.17.47c.17.07.33.16.6.13.13-.72-.52-.68-.6-.13Zm8.79,5.03c-.19,2.7-.42,5.35-.6,8.05h3.29c-.3-2.72-.5-5.54-.8-8.25-.59.11-1.63-.24-1.88.2h0Zm7.31-.2c-.51,2.53-.6,5.49-.87,8.25h3.22c-.15-2.8-.42-5.49-.6-8.25h-1.74Zm-7.78,11.94v.6c.34,0,.58-.44.81-.33v2.21c.23-.02.54.05.67-.07v-3.22c-.89-.13-.79.73-1.48.81h0Zm3.82,2.55c1.23-.23,1.26-3.1.07-3.36-2.1-.44-1.33,3.15.13,2.08,0,.41-.12.69-.47.74-.21-.03-.27-.22-.34-.4-.19.06-.4.09-.6.07.28,1.02.76.96,1.21.87h0Zm1.95-.2c1.88,1.53,2.64-3.64.4-3.09-1.08.26-.98,2.62-.4,3.09h0Zm3.82-3.15c-.68-.15-1.44.18-1.48,1.01.28-.04.44.05.67.07-.04-.66.68-.65.8-.27.26.82-1.76,1.61-1.54,2.48h2.21v-.6h-1.21c.72-.33,1.99-2.35.54-2.68h0Zm-43.81,6.1c.25,8.21-.34,16.32,0,24.02.31,7.15,4,12.17,8.12,15.97,7.72,7.13,18.27,11.88,28.98,16.17.7.28,1.71.88,2.15.87s1.4-.59,2.08-.87c10.76-4.39,21.39-9.02,29.05-16.17,3.9-3.63,7.88-8.9,8.05-16.03.19-7.77-.14-15.78,0-24.09-5.21.8-10.38,1.65-15.57,2.48v3.62c.56.2,1.58-.06,2.15.13-.05,7.22.09,14.63-.07,21.74-1.3-.04-3.05.08-4.03-.07-4.85,5.05-11.72,8.2-18.71,11.2-.86.37-2.27,1.29-3.02,1.28-.34,0-.98-.39-1.48-.6-3.53-1.49-7.08-3.1-10.27-4.76-2.6-1.36-5.51-3.1-7.78-5.03-.7-.59-1.6-1.94-2.21-2.08-1.13-.26-3.07.4-4.03,0v-21.74h2.15v-3.75c-5.2-.79-10.37-1.62-15.5-2.48-.08,0-.08.1-.07.2Zm50.45,3.89c-4.32-.66-8.09.46-11.27,1.81-2.66-1.11-5.53-2.18-9.12-2.01-4.8.23-8.3,2.71-13.28,2.15v18.65c3.97.54,7.51-.64,11.27-1.14,3.14-.42,6.04-.38,8.72.27.75.18,1.76.74,2.48.74.72,0,1.68-.55,2.42-.74.9-.22,1.82-.38,2.75-.47,6.24-.62,11.31,1.89,17.24,1.41v-18.72c-4.19.58-7.52-1.38-11.2-1.95Zm-35.89,3.49c.04,6.02-.09,12.21.07,18.11h.94c.16-5.97.02-12.23.07-18.32h-1.01c-.08.01-.07.11-.07.2Zm48.24,0c.05,6.02-.09,12.21.07,18.11h1.01v-18.32h-1.01c-.08.01-.07.11-.07.2h0Zm-23.62,18.25c-4.34-2.21-11.67-1.45-16.44-.13h13.08c.03.52-.02.8.07,1.07h6.71c.04-.34-.09-.85.07-1.07h13.02c-4.8-1.36-12.11-2.02-16.5.13Zm-18.18,2.21c4.2,3.53,10.12,6.44,15.7,8.86.69.3,1.99,1.01,2.55,1.01.56,0,1.77-.69,2.48-1.01.88-.39,1.74-.84,2.42-1.14,4.6-2.06,9.41-4.3,12.95-7.31.08-.07.32-.24.27-.4h-13.69c-.12.27.47.72.27,1.07h-9.47c-.05-.49.43-.76.27-1.14-4.11.16-9.76.02-13.75.07Zm16.44-33.21c-.04.55-.04,1.06.6.94.5-.42-.06-1.58-.61-.94h0Zm3.29,2.08c.47-.43.35-1.61.13-2.21-.84-.27-.84,2.1-.14,2.21h0Z" style="fill:#1894da; fill-rule:evenodd; stroke-width:0px;"/><path d="m14.29,46.91h.4c-.12.6.16,1.09,0,1.61-.14.44-1.49,1.36-1.88,1.68-.75.61-1.46,1.04-1.95,1.61,1.08-.04,2.31.08,3.29-.07.24-.1-.02-.69.27-.74.43-.07.27.65.27,1.07s.14,1.12-.2,1.14c-.39.07-.09-.53-.27-.67-1.57-.29-3.65-.06-5.43-.13,0-.56.61-.8.94-1.07,1.05-.87,2.15-1.79,3.22-2.68-.75-.02-2.5,0-3.49,0-.23.08-.04.59-.2.74h-.27c-.26-.45-.14-1.65-.07-2.21h.27c.29.02.03.59.2.74,1.44-.2,5.06.91,4.9-1.01Z" style="fill:#1894da; fill-rule:evenodd; stroke-width:0px;"/><path d="m73.27,47.65h.2c.33-.02.14.49.33.6.73.84,1.87,1.27,2.75,1.95h1.95c.23-.08.04-.59.2-.74h.4v2.62h-.34c-.27.03-.07-.42-.13-.6-.37-.32-1.22-.16-1.88-.2-.98.61-1.91,1.26-2.89,1.88-.21.17-.04.72-.47.67-.24-.25-.13-.87-.13-1.41,0-.46-.16-1.16.2-1.28.39-.05.09.58.33.67.81-.31,1.44-.79,2.08-1.28-.63-.44-1.22-.93-2.01-1.21-.31.03-.04.63-.4.6-.44-.38-.08-1.57-.2-2.28Z" style="fill:#1894da; fill-rule:evenodd; stroke-width:0px;"/><path d="m8.92,52.81h.27c.25.02.12.42.27.54,1.66,1,3.84,1.48,5.43,2.55-1.59,1.05-3.73,1.55-5.43,2.48-.16.17.02.69-.4.6-.22-.52-.22-1.96,0-2.48.45-.12.17.5.4.6.5-.08.88-.28,1.27-.47v-1.95c-.38-.19-.73-.39-1.21-.47-.33,0,0,.66-.4.6-.45-.22-.08-1.26-.2-1.81v-.2Zm2.42,3.56c.61-.19,1.21-.4,1.68-.74-.59-.19-1.07-.5-1.68-.67v1.41Z" style="fill:#1894da; fill-rule:evenodd; stroke-width:0px;"/><path d="m74.81,54.29c.02.58-.66.34-.87.74-.16.3-.02.58-.07,1.14,1.52-.04,3.22.09,4.63-.07.25-.06.02-.6.2-.74h.27c.27.61.14,1.96.07,2.68h-.27c-.29-.02-.03-.59-.2-.74-1.41-.15-3.1-.02-4.63-.07-.08.34-.13.72-.07.94.17.55.88.31.94.87-.16.16-1.18.07-1.54,0,0-1.29,0-3.47,0-4.76.49.02,1.1-.19,1.54,0Z" style="fill:#1894da; fill-rule:evenodd; stroke-width:0px;"/><path d="m14.76,59.26c-.12.59.17,1.08,0,1.61-.15.47-1.54,1.35-1.95,1.68-.77.62-1.4,1.1-1.95,1.61,1.08-.04,2.32.09,3.29-.07.31-.07-.02-.78.4-.74.35.05.2.66.2,1.07s.11,1-.13,1.14c-.48.08-.19-.62-.47-.74-1.77-.04-3.71.09-5.37-.07.07-.51.58-.78.94-1.07,1.05-.85,2.19-1.72,3.22-2.68h-3.37c-.4,0-.07.74-.47.74-.35-.03-.2-.72-.2-1.14s-.14-1.04.2-1.07c.4-.04.07.64.34.74,1.32.15,2.93.03,4.36.07.59-.08.19-1.16.95-1.07Z" style="fill:#1894da; fill-rule:evenodd; stroke-width:0px;"/><path d="m73.2,59.46h.4c.13.16.02.56.13.74,1.56.11,3.13.11,4.7,0,.34-.01.03-.68.34-.74.46,0,.27.84.27,1.34s.15,1.24-.2,1.34c-.4.04-.07-.64-.33-.74-1.57-.11-3.14-.11-4.7,0-.25.06-.02.6-.2.74h-.27c-.3-.63-.04-1.83-.13-2.68Z" style="fill:#1894da; fill-rule:evenodd; stroke-width:0px;"/><path d="m78.9,66.57c.02.25.48.05.33.47-.45.26-1.65.14-2.21.07-.06-.56.57-.44.87-.6.58-.32,1.29-2.29-.07-2.28-1.38,0-1.23,3.46-3.56,2.95-.97-.21-1.5-1.65-.87-2.95.05-.3-.4-.09-.27-.47.43-.22,1.79-.22,2.21,0-.1.47-.53.3-.87.47-.54.27-1.3,2.05-.07,2.08,1.21.03,1.5-4,3.82-2.95,1,.45,1.22,1.92.67,3.22Z" style="fill:#1894da; fill-rule:evenodd; stroke-width:0px;"/><path d="m16.17,71.6c-.33,1.66-.78,3.2-1.14,4.83.8-.47,1.89-1.24,2.62-2.01-.05-.38-.52-.54-.13-.8.62.41,1.16,1.26,1.41,1.81-.41.35-.44-.26-.8-.34-1.59.94-2.84,2.21-4.43,3.15-.13-.87.24-1.82.47-2.75.23-.93.46-1.87.67-2.75-.97.68-1.94,1.37-2.82,2.15-.01.44.55.58.13.87-.62-.41-1.16-1.26-1.41-1.81.42-.35.44.26.81.34,1.28-.75,2.32-1.75,3.56-2.55.25-.7-.39-1.13-.13-1.48-.8,0-1.63.4-2.41.67-.79.27-1.64.46-2.21.94-.02.28.18.36.13.67-.14-.03-.18.05-.27.07-.47-.69-.68-1.65-.94-2.55.14.03.18-.05.27-.07.31.05.16.55.47.6,1.54-.38,3.04-.9,4.49-1.54-.19-.58.09-.82-.2-1.21-1.62.03-5.88,1.5-5.64-1.07.04-.38.28-.87,1.01-.74.57.43.05,1.03-.34,1.27,1.43.17,3.24-.42,4.76-.6.09-.26.09-.54,0-.8.09-.04.35.08.34-.07.58,2.06.54,4.45,1.75,5.77Z" style="fill:#1894da; fill-rule:evenodd; stroke-width:0px;"/><path d="m75.75,69.72c.73-.2,1.75-.34,2.42-.81.38-.27.43-.85.94-.74-.07.65-.29,1.14-.47,1.68-.5.23-1.13.34-1.68.54-.51.18-1.13.32-1.41.74.39.43,1.23.42,1.81.67.44.01.23-.62.6-.67-.01.06.03.06.07.07.28.21,0,.85-.13,1.28-.14.46-.34.93-.47,1.28-.14.03-.18-.05-.27-.07-.28-.02.13-.37,0-.67-1.3-.69-2.97-1.01-4.5-1.48-.35.05-.18.62-.54.67.01-.06-.03-.06-.07-.07-.3-.12-.07-.57,0-.8.2-.68.5-2,.94-2.62.74-1.04,2.86-.86,2.75,1.01Zm-2.75.74c.66.25,1.33.45,2.01.6.96-1.86-2.07-2.53-2.01-.6Z" style="fill:#1894da; fill-rule:evenodd; stroke-width:0px;"/><path d="m71.25,72.54c.47.23.78.61,1.28.8-.16.66-.62.07-1.01.13-.68.11-.81,1.09-1.34,1.48.35.55.97.82,1.48,1.21.22-.42.87-.76.87-1.27,0-.4-.53-.48-.27-.87.6.12,1.45.92,1.81,1.27-.08.51-.52.05-.8,0-.53.25-.73.84-1.14,1.21.52.48,1.08.91,1.68,1.28.38-.43,1.12-.92,1.21-1.61.07-.56-.52-1.03-.13-1.48.46.35.7.91,1.01,1.41-.92,1.2-1.68,2.57-2.82,3.56-.39-.27.11-.41.13-.8-.36-.48-1.05-.97-1.81-1.54-.5-.38-1.52-1.36-1.95-1.34-.38.02-.38.53-.74.4-.24-.35.22-.69.4-.94.68-.9,1.49-1.91,2.15-2.89Z" style="fill:#1894da; fill-rule:evenodd; stroke-width:0px;"/><path d="m21.53,77.77c.28-.12.31-.26.54,0-.09.59-.78,1.14-1.07,1.74-.6-.24-.06-.71-.07-1.21,0-.88-.67-1.63-1.54-1.74-2.44-.29-4.26,3.99-1.41,4.76.28-.44,1.33-1.05,1.34-1.61,0-.38-.54-.38-.27-.74.32-.17.75.33,1.07.6.36.31.84.62.87.94-.25.35-.32,0-.67-.07-.66.46-1.04,1.2-1.61,1.74-1.69-.47-3.06-1.36-3.22-3.02-.35-3.65,5.02-4.47,6.04-1.41Z" style="fill:#1894da; fill-rule:evenodd; stroke-width:0px;"/><path d="m68.17,76.5c-.55.82.16,2.32.54,3.56.31,1.02.73,1.96.67,2.75-1.82-.58-3.55-1.82-5.37-2.62-.27.05-.41.21-.67.27-.47-.34.39-.8.8-1.14.46-.38.87-.86,1.14-.6.2.26-.25.34-.27.6.91.84,2.2,1.29,3.35,1.88-.31-1.23-.69-2.4-1.07-3.56-.47-.06-.62.37-.87,0,.28-.63,1.01-.83,1.41-1.34.21-.03.18.18.33.2Z" style="fill:#1894da; fill-rule:evenodd; stroke-width:0px;"/><path d="m28.38,82.27c-.29.45-.41,1.07-.87,1.34,0-.06-.08-.05-.13-.07.24-.81-.19-1.49-.87-1.74-.82,1.32-1.76,2.53-2.41,4.03,0,.33.46.21.47.54-.09.05-.13.14-.13.27-.79-.46-1.64-.87-2.28-1.48.09-.03.14-.11.13-.2.23-.17.33.26.67.2,1.08-1.09,1.69-2.64,2.62-3.89-.38-.46-1.49-.84-1.74,0-.28-.1-.45-.31-.6-.54.42-.25.7-.64,1.07-.94,1.47.73,2.73,1.66,4.09,2.48Z" style="fill:#1894da; fill-rule:evenodd; stroke-width:0px;"/><path d="m62.67,80.72c-.16.2-.42.3-.54.54.77,1.4,1.67,2.72,2.68,3.96.26-.05.48-.15.6-.34.13.08.14.26.27.34-.71.5-1.54,1.23-2.28,1.48.01-.09-.05-.18-.13-.2.04-.31.46-.26.47-.6-.73-1.39-1.61-2.69-2.61-3.89-.42-.12-.5.35-.74.2-.06-.05-.04-.18-.13-.2.55-.66,1.43-.99,2.08-1.54.23-.02.2.2.33.27Z" style="fill:#1894da; fill-rule:evenodd; stroke-width:0px;"/><path d="m59.18,82.6c-.02.33-.44.27-.54.54.72,1.72,1.68,3.19,2.55,4.76-.4.34-.94-.04-1.34-.2-1.27-.5-2.74-1.1-4.02-1.61.59,1.04,1.06,2.2,1.81,3.09.36.08.48-.32.74-.13-.01.08.01.12.07.13-.45.6-1.28.83-1.95,1.21,0-.13-.04-.22-.13-.27.04-.32.47-.24.54-.54-.54-1.43-1.41-2.53-2.01-3.89-.49-.32-1.03.19-1.34-.07.02-.53.98-.67,1.41-1.01,1.57.58,3.04,1.25,4.63,1.81-.53-.99-.99-2.05-1.68-2.89-.28.02-.44.14-.6.27-.15-.05-.09-.32-.27-.34.55-.41,1.26-.67,1.81-1.07.27-.09.16.19.34.2Z" style="fill:#1894da; fill-rule:evenodd; stroke-width:0px;"/><path d="m28.58,82.54c1.45.61,2.67,1.45,4.09,2.08-.21.46-.39.95-.67,1.34-.62-.07-.12-.47-.2-.81-.18-.73-1.16-.78-1.74-1.21-.42.43-.58,1.12-.94,1.61.39.32.91.52,1.41.74.42-.09.44-.76.94-.4-.28.72-.73,1.29-1.01,2.01-.13-.03-.17-.14-.33-.13-.12-.17.12-.42.13-.67-.25-.53-.87-.69-1.41-.94-.35.56-.7,1.13-.94,1.81.49.32,1.04.9,1.68.94.63.04.98-.69,1.54-.4-.34.53-.8.96-1.34,1.27-1.22-.82-2.74-1.33-3.89-2.21.09-.03.14-.11.13-.2.2-.16.33.22.67.13.53-.32.74-1.15,1.21-2.01.46-.87,1.68-2.17.54-2.68.09-.04.13-.14.14-.27Z" style="fill:#1894da; fill-rule:evenodd; stroke-width:0px;"/><path d="m36.97,86.9c.31.03.37-.47.6-.13.12.44-.47,1.67-.67,2.01-.48-.15-.22-.97-.34-1.34-.3-.94-1.22-1.28-2.15-1.01-1.74.52-2.78,4.71.07,4.76.65.01,1.15-.64,1.61-.34.07.36-.41.44-.6.54-1.79.87-4.01-.41-3.96-2.55.07-2.84,3.7-4.26,5.43-1.95Z" style="fill:#1894da; fill-rule:evenodd; stroke-width:0px;"/><path d="m52.87,86.43c-.05.28-.49.18-.54.47.05,1.55,1.75,2.73,1.41,4.5-.19.99-1.52,1.86-2.82,1.74-2.04-.19-1.82-3.15-3.09-4.29-.32-.09-.49.31-.67.13-.29-.44.56-.67,1.01-.87.48-.21,1.19-.63,1.41-.34.19.33-.5.28-.54.6.59.92,1,3.95,2.42,4.03.76.04,1.6-.54,1.68-1.34.06-.69-.47-1.4-.74-2.01-.3-.68-.45-1.4-.94-1.81-.3-.07-.53.27-.67.13-.39-.65,1.38-.78,1.74-1.21.26-.06.26.14.34.27Z" style="fill:#1894da; fill-rule:evenodd; stroke-width:0px;"/><path d="m38.24,87.23c.82.34,1.67.65,2.48,1.01-.06.13-.11.26-.13.4-.2-.08-.4-.15-.6-.2-.58.34-.61,1.23-.94,1.81.58.42,1.41.6,2.08.94.28-.56.5-1.2.74-1.81,0-.42-.61-.24-.6-.67.29-.36.81.11,1.21.27.48.19,1.01.28,1.34.54.03.16-.12.15-.07.34-.33.06-.34-.19-.67-.13-.86,1.2-1.26,2.86-1.88,4.29.03.35.43.33.6.54-.14.6-.82.09-1.21-.07-.49-.2-1.01-.43-1.41-.54.06-.13.11-.26.13-.4.29,0,.38.21.74.13.39-.52.56-1.27.87-1.88-.59-.41-1.43-.58-2.08-.94-.34.55-.52,1.27-.8,1.88.03.43.84.32.54.87-.45-.1-.9-.3-1.34-.47-.39-.16-.97-.26-1.14-.67.06,0,.05-.08.07-.13.21-.17.38.17.74.07.49-.63.97-2.13,1.41-3.22.27-.69.74-1.37-.2-1.54-.02-.19.15-.2.14-.4Z" style="fill:#1894da; fill-rule:evenodd; stroke-width:0px;"/><path d="m28.11,52.01c.04.59.29.96.4,1.48.18.16.6.07.74.27-.7.71-1.76,1.06-1.88,2.35.9-.39,1.14-1.45,2.08-1.81.19.17.4.32.54.54.02.53-.26.99-.34,1.68-.12,1.15.41,2.34-.54,2.68-.29-.21-.46-.79-1.01-.54-.07.25.25.11.2.33-.23.22-.31.58-.67.67-.09-.34-.34-.51-.67-.6-.05-.43.56-.2.4-.74.01-.14-.24-.03-.33-.07.02-.29-.05-.49-.2-.6-.46.26-.9.51-.87,1.01.02.39.79.75.34,1.21-.97-.07-1.17-1.14-1.01-2.15.29-.06.12.33.34.34.75-.25.81-1.2,1.34-1.68-.14-.4-.87-.2-.94-.67.71-.23,1.15-.72,1.54-1.28.12-.88-.25-1.84.07-2.48.22-.04.32.04.47.06Zm.34,3.69c.1.14.17.3.2.47-.09.41-.56.6-.6,1.01-.04.43.41.63.27,1.07.22-.02.28.12.54.07.37-.75.3-2.16.13-3.09-.09,0-.09-.09-.2-.07,0,.29-.33.25-.34.54Zm-1.01,1.74c.33-.12.58-.86.34-1.14-.17.31-.51.69-.34,1.14h0Z" style="fill:#1894da; fill-rule:evenodd; stroke-width:0px;"/><path d="m53.41,52.68c1.37.13,1.04,1.58.87,2.82.46.11.67-.58,1.14-.67.06.12.25.11.27.27-.34.46-1.05.56-1.48.94-.01,1.44-.87,2.04-1.88,2.48.1-.77,1.35-.97,1.27-2.15-.84.11-1.55,1.25-2.89.87.17-.52.93-.52,1.48-.74.54-.22,1.07-.46,1.54-.67.19-1.17.12-2.33-.33-3.16Z" style="fill:#1894da; fill-rule:evenodd; stroke-width:0px;"/><path d="m35.22,53.02c.03.2.17.49.07.6-.56.03-1.11-.19-1.01-.6.33-.12.53.03.94,0Z" style="fill:#1894da; fill-rule:evenodd; stroke-width:0px;"/><path d="m36.36,53.62c-.25.5-1.36.8-2.01,1.21-.53.33-.95,1.03-1.61.33,1.12-.49,2.4-.82,3.15-1.68.22-.01.4,0,.47.13Z" style="fill:#1894da; fill-rule:evenodd; stroke-width:0px;"/><path d="m42,55.16c-.17.88-.81,1.3-1.14,2.01.25.2.42-.25.8-.13-.02.53-.72.63-1.14.87-.58.34-.99.76-2.01.67-.16-.18-.42-.25-.47-.54,1.9-.06,2.47-1.47,3.22-2.68-.45-.07-2.01.53-1.74-.47.98.35,2.07-.49,2.48.27Z" style="fill:#1894da; fill-rule:evenodd; stroke-width:0px;"/><path d="m36.1,55.16c-.17.28-.43.46-.67.67-.07.25.17.19.13.4-.22.11-.45.22-.67.33.07.72.39,2.09-.2,2.48-.32-.21-.29-.78-.74-.87-.65.09-.32,1.15-1.21,1.01-.15-.29-.22-.61-.2-.94.45-.18.96-.3,1.34-.54.26.03.29.3.54.34.19-.46-.2-1.22.4-1.34-.26-.57.24-.85.4-1.21-.25-.17-.59.75-.94.27.53-.24,1.13-1.16,1.81-.6Z" style="fill:#1894da; fill-rule:evenodd; stroke-width:0px;"/><path d="m34.42,56.71c-.14.02-.13.18-.27.2-.38-.14-.6-.43-.6-.94.43-.32.96.13.87.74Z" style="fill:#1894da; fill-rule:evenodd; stroke-width:0px;"/><path d="m35.49,57.04c.7.01.9,1.83,0,1.54-.12-.38-.1-1.16,0-1.54Z" style="fill:#1894da; fill-rule:evenodd; stroke-width:0px;"/><path d="m55.22,57.38c.51.18.87.52.87,1.21-.16.09-.25.25-.54.2-.24-.34-.14-1.03-.34-1.41Z" style="fill:#1894da; fill-rule:evenodd; stroke-width:0px;"/><path d="m48.31,58.58c-.23-.27-.64-.35-.67-.8.5-.31,1.22.48.67.8Z" style="fill:#1894da; fill-rule:evenodd; stroke-width:0px;"/><path d="m60.65,51.34c.28-.01.56-.02.67.13-.01.08.02.12.07.13-.05.75-.71.9-.87,1.54.11.11.25.18.4.2.55-.35.99-1.24,1.81-.74-.03,1.09-.96,1.28-1.14,2.21.8.63-.41,1.25-.74,1.61.16.13.79-.16.94.13-.01.56-.34.82-.87.87.12.66.29,1.82-.07,2.35-.47-.11-.82-.34-1.21-.54.1-.25.48-.23.8-.27-.02-.45.06-1-.07-1.34-.55.18-1.06,1.07-1.81.6.52-.44,1.43-.49,1.74-1.14-.17-.91.62-.85.74-1.48-.3-.03-.78.69-1.27.47.33-.51.83-.89,1.41-1.07.31-.56.62-1.13.74-1.88-.38-.04-.37.3-.67.34.43.63-.07,1.36-.67,1.54.01-.19.12-.28.13-.47-.32.1-.34.51-.67.6-.18-.2.15-.3.07-.6-.42.14-.47.64-.8.87-.23-.36-.77-.74-.6-1.28.48-.09.46.31.67.47.09-.56-.58-.94-.54-1.68.37,0,.48.24.67.4.82-.22,1.06-1.04,1.14-2.01Zm-.67,2.48c.12.06.17.19.4.13.09-.28-.37-.36-.4-.13Zm.87.54c.03-.13.19-.12.13-.34-.09,0-.09-.09-.2-.07.04.12-.08.39.07.4h0Z" style="fill:#1894da; fill-rule:evenodd; stroke-width:0px;"/><path d="m48.37,52.35c.07.85-.35,1.22-.34,2.01.4-.22.96-.16.94.4-1.07-.08-1.92.05-2.15.8.41-.05.47-.46,1.07-.33.16.36-.24.33-.34.6-.18.52.23,1.26-.34,1.54,0,.55.18,1.13-.07,1.54-.34,0-.44-.23-.67-.34-.5.24-.76.71-1.01,1.21-.43.09-.25-.54-.2-.74.47-.43,1.32-.48,1.41-1.27-.1-.15-.4.31-.6.07-.03-.48.6-.3.47-.87-.08-.21-.26.09-.34-.07.39-.46,1.13-.57,1.21-1.34-.45.09-.49.58-1.07.54v-.4c-.53.09-.69.56-1.41.47-.13-.12-.16-.33-.27-.47.74-.22,1.81-.12,2.21-.67-.1-.17-.16-.35-.2-.54-.28.03-.37.32-.67.13v-.47c.74.12.67-.58.67-1.21.29-.02.34.19.47.33.02.36-.2.47-.13.87.23-.08.24-.38.27-.67.12,0,.14.08.27.07.23-.44.05-1.29.8-1.21Zm-1.14,2.08c.02.12,0,.24-.07.34.64.17.94-1.23.67-1.74-.19.44-.02,1.58-.6,1.41Z" style="fill:#1894da; fill-rule:evenodd; stroke-width:0px;"/></g></svg>